HIERARCHY
ROOT Hips
{
	OFFSET 0.717293 88.513641 3.606412
	CHANNELS 6 Xposition Yposition Zposition Zrotation Yrotation Xrotation 
	JOINT Spine
	{
		OFFSET -0.000000 8.814246 -2.080107
		CHANNELS 3 Zrotation Yrotation Xrotation
		JOINT Spine1
		{
			OFFSET -0.000000 8.844141 -0.000000
			CHANNELS 3 Zrotation Yrotation Xrotation
			JOINT Spine2
			{
				OFFSET 0.000000 11.682268 0.000000
				CHANNELS 3 Zrotation Yrotation Xrotation
				JOINT Spine3
				{
					OFFSET 0.000000 11.746700 -0.000000
					CHANNELS 3 Zrotation Yrotation Xrotation
					JOINT Neck
					{
						OFFSET 0.000000 17.658264 0.000000
						CHANNELS 3 Zrotation Yrotation Xrotation
						JOINT Neck1
						{
							OFFSET -0.000000 5.101515 -0.000000
							CHANNELS 3 Zrotation Yrotation Xrotation
							JOINT Head
							{
								OFFSET -0.000000 5.101515 -0.000000
								CHANNELS 3 Zrotation Yrotation Xrotation
								JOINT HeadEnd
								{
									OFFSET -0.000000 11.655085 -0.000000
									CHANNELS 3 Zrotation Yrotation Xrotation
									End Site
									{
										OFFSET 0.000000 0.000000 0.000000
									}
								}
							}
						}
					}
					JOINT RightShoulder
					{
						OFFSET -2.625389 11.175210 -0.000000
						CHANNELS 3 Zrotation Yrotation Xrotation
						JOINT RightArm
						{
							OFFSET 0.000000 10.434715 0.000000
							CHANNELS 3 Zrotation Yrotation Xrotation
							JOINT RightForeArm
							{
								OFFSET 0.000000 29.628420 0.000000
								CHANNELS 3 Zrotation Yrotation Xrotation
								JOINT RightHand
								{
									OFFSET 0.000000 22.857611 -0.000000
									CHANNELS 3 Zrotation Yrotation Xrotation
									JOINT RightHandThumb1
									{
										OFFSET -2.867323 3.959563 2.944291
										CHANNELS 3 Zrotation Yrotation Xrotation
										JOINT RightHandThumb2
										{
											OFFSET 0.000000 3.350399 -0.000000
											CHANNELS 3 Zrotation Yrotation Xrotation
											JOINT RightHandThumb3
											{
												OFFSET 0.000000 3.756509 -0.000000
												CHANNELS 3 Zrotation Yrotation Xrotation
												JOINT RightHandThumb4
												{
													OFFSET -0.000000 3.147345 -0.000000
													CHANNELS 3 Zrotation Yrotation Xrotation
													End Site
													{
														OFFSET 0.000000 0.000000 0.000000
													}
												}
											}
										}
									}
									JOINT RightHandIndex1
									{
										OFFSET -0.086752 10.030893 2.345280
										CHANNELS 3 Zrotation Yrotation Xrotation
										JOINT RightHandIndex2
										{
											OFFSET -0.000000 4.061090 -0.000000
											CHANNELS 3 Zrotation Yrotation Xrotation
											JOINT RightHandIndex3
											{
												OFFSET -0.000000 3.248873 0.000000
												CHANNELS 3 Zrotation Yrotation Xrotation
												JOINT RightHandIndex4
												{
													OFFSET -0.000000 2.639709 0.000000
													CHANNELS 3 Zrotation Yrotation Xrotation
													End Site
													{
														OFFSET 0.000000 0.000000 0.000000
													}
												}
											}
										}
									}
									JOINT RightHandMiddle1
									{
										OFFSET 0.104102 9.502952 0.006768
										CHANNELS 3 Zrotation Yrotation Xrotation
										JOINT RightHandMiddle2
										{
											OFFSET 0.000000 4.568727 -0.000000
											CHANNELS 3 Zrotation Yrotation Xrotation
											JOINT RightHandMiddle3
											{
												OFFSET 0.000000 3.654981 -0.000000
												CHANNELS 3 Zrotation Yrotation Xrotation
												JOINT RightHandMiddle4
												{
													OFFSET 0.000000 2.741236 0.000000
													CHANNELS 3 Zrotation Yrotation Xrotation
													End Site
													{
														OFFSET 0.000000 0.000000 0.000000
													}
												}
											}
										}
									}
									JOINT RightHandRing1
									{
										OFFSET 0.086752 8.921708 -2.267442
										CHANNELS 3 Zrotation Yrotation Xrotation
										JOINT RightHandRing2
										{
											OFFSET -0.000000 4.061090 -0.000000
											CHANNELS 3 Zrotation Yrotation Xrotation
											JOINT RightHandRing3
											{
												OFFSET -0.000000 3.654981 0.000000
												CHANNELS 3 Zrotation Yrotation Xrotation
												JOINT RightHandRing4
												{
													OFFSET -0.000000 2.741236 0.000000
													CHANNELS 3 Zrotation Yrotation Xrotation
													End Site
													{
														OFFSET 0.000000 0.000000 0.000000
													}
												}
											}
										}
									}
									JOINT RightHandPinky1
									{
										OFFSET -0.173504 7.976997 -4.467199
										CHANNELS 3 Zrotation Yrotation Xrotation
										JOINT RightHandPinky2
										{
											OFFSET -0.000000 3.350399 -0.000000
											CHANNELS 3 Zrotation Yrotation Xrotation
											JOINT RightHandPinky3
											{
												OFFSET -0.000000 2.842763 0.000000
												CHANNELS 3 Zrotation Yrotation Xrotation
												JOINT RightHandPinky4
												{
													OFFSET 0.000000 2.639709 -0.000000
													CHANNELS 3 Zrotation Yrotation Xrotation
													End Site
													{
														OFFSET 0.000000 0.000000 0.000000
													}
												}
											}
										}
									}
									JOINT RightForeArmEnd
									{
										OFFSET 0.000000 0.000000 0.000000
										CHANNELS 3 Zrotation Yrotation Xrotation
										End Site
										{
											OFFSET 0.000000 0.000000 0.000000
										}
									}
								}
								JOINT RightArmEnd
								{
									OFFSET 0.000000 0.000000 0.000000
									CHANNELS 3 Zrotation Yrotation Xrotation
									End Site
									{
										OFFSET 0.000000 0.000000 0.000000
									}
								}
							}
						}
					}
					JOINT LeftShoulder
					{
						OFFSET 2.625389 11.175210 -0.000000
						CHANNELS 3 Zrotation Yrotation Xrotation
						JOINT LeftArm
						{
							OFFSET 0.000000 10.813635 0.000000
							CHANNELS 3 Zrotation Yrotation Xrotation
							JOINT LeftForeArm
							{
								OFFSET -0.000000 28.724781 -0.000000
								CHANNELS 3 Zrotation Yrotation Xrotation
								JOINT LeftHand
								{
									OFFSET 0.644384 25.716167 -0.328871
									CHANNELS 3 Zrotation Yrotation Xrotation
									JOINT LeftHandThumb1
									{
										OFFSET 2.867323 3.959563 2.944291
										CHANNELS 3 Zrotation Yrotation Xrotation
										JOINT LeftHandThumb2
										{
											OFFSET 0.000000 3.350399 0.000000
											CHANNELS 3 Zrotation Yrotation Xrotation
											JOINT LeftHandThumb3
											{
												OFFSET 0.000000 3.756509 0.000000
												CHANNELS 3 Zrotation Yrotation Xrotation
												JOINT LeftHandThumb4
												{
													OFFSET -0.000000 3.100000 0.000000
													CHANNELS 3 Zrotation Yrotation Xrotation
													End Site
													{
														OFFSET 0.000000 0.000000 0.000000
													}
												}
											}
										}
									}
									JOINT LeftHandIndex1
									{
										OFFSET 0.086752 10.030893 2.345280
										CHANNELS 3 Zrotation Yrotation Xrotation
										JOINT LeftHandIndex2
										{
											OFFSET -0.000000 4.061090 -0.000000
											CHANNELS 3 Zrotation Yrotation Xrotation
											JOINT LeftHandIndex3
											{
												OFFSET -0.000000 3.248873 -0.000000
												CHANNELS 3 Zrotation Yrotation Xrotation
												JOINT LeftHandIndex4
												{
													OFFSET -0.000000 2.639709 -0.000000
													CHANNELS 3 Zrotation Yrotation Xrotation
													End Site
													{
														OFFSET 0.000000 0.000000 0.000000
													}
												}
											}
										}
									}
									JOINT LeftHandMiddle1
									{
										OFFSET -0.104102 9.502952 0.006768
										CHANNELS 3 Zrotation Yrotation Xrotation
										JOINT LeftHandMiddle2
										{
											OFFSET 0.000000 4.568727 -0.000000
											CHANNELS 3 Zrotation Yrotation Xrotation
											JOINT LeftHandMiddle3
											{
												OFFSET 0.000000 3.654981 0.000000
												CHANNELS 3 Zrotation Yrotation Xrotation
												JOINT LeftHandMiddle4
												{
													OFFSET 0.000000 2.741236 0.000000
													CHANNELS 3 Zrotation Yrotation Xrotation
													End Site
													{
														OFFSET 0.000000 0.000000 0.000000
													}
												}
											}
										}
									}
									JOINT LeftHandRing1
									{
										OFFSET -0.086752 8.921708 -2.267442
										CHANNELS 3 Zrotation Yrotation Xrotation
										JOINT LeftHandRing2
										{
											OFFSET -0.000000 4.061090 -0.000000
											CHANNELS 3 Zrotation Yrotation Xrotation
											JOINT LeftHandRing3
											{
												OFFSET 0.000000 3.654981 0.000000
												CHANNELS 3 Zrotation Yrotation Xrotation
												JOINT LeftHandRing4
												{
													OFFSET -0.000000 2.741236 -0.000000
													CHANNELS 3 Zrotation Yrotation Xrotation
													End Site
													{
														OFFSET 0.000000 0.000000 0.000000
													}
												}
											}
										}
									}
									JOINT LeftHandPinky1
									{
										OFFSET 0.173504 7.976997 -4.467199
										CHANNELS 3 Zrotation Yrotation Xrotation
										JOINT LeftHandPinky2
										{
											OFFSET 0.000000 3.350399 -0.000000
											CHANNELS 3 Zrotation Yrotation Xrotation
											JOINT LeftHandPinky3
											{
												OFFSET 0.000000 2.842763 0.000000
												CHANNELS 3 Zrotation Yrotation Xrotation
												JOINT LeftHandPinky4
												{
													OFFSET -0.000000 2.639709 -0.000000
													CHANNELS 3 Zrotation Yrotation Xrotation
													End Site
													{
														OFFSET 0.000000 0.000000 0.000000
													}
												}
											}
										}
									}
									JOINT LeftForeArmEnd
									{
										OFFSET 0.000000 0.000000 0.000000
										CHANNELS 3 Zrotation Yrotation Xrotation
										End Site
										{
											OFFSET 0.000000 0.000000 0.000000
										}
									}
								}
								JOINT LeftArmEnd
								{
									OFFSET 0.000000 0.000000 0.000000
									CHANNELS 3 Zrotation Yrotation Xrotation
									End Site
									{
										OFFSET 0.000000 0.000000 0.000000
									}
								}
							}
						}
					}
				}
			}
		}
	}
	JOINT RightUpLeg
	{
		OFFSET -11.289943 0.000000 -0.000000
		CHANNELS 3 Zrotation Yrotation Xrotation
		JOINT RightLeg
		{
			OFFSET 0.000000 -38.200325 -0.000000
			CHANNELS 3 Zrotation Yrotation Xrotation
			JOINT RightFoot
			{
				OFFSET -0.000000 -39.900856 -0.000000
				CHANNELS 3 Zrotation Yrotation Xrotation
				JOINT RightToeBase
				{
					OFFSET -0.000000 0.000000 15.261641
					CHANNELS 3 Zrotation Yrotation Xrotation
					JOINT RightToeBaseEnd
					{
						OFFSET 0.000000 0.000000 7.370709
						CHANNELS 3 Zrotation Yrotation Xrotation
						End Site
						{
							OFFSET 0.000000 0.000000 0.000000
						}
					}
				}
				JOINT RightLegEnd
				{
					OFFSET 0.000000 0.000000 0.000000
					CHANNELS 3 Zrotation Yrotation Xrotation
					End Site
					{
						OFFSET 0.000000 0.000000 0.000000
					}
				}
			}
			JOINT RightUpLegEnd
			{
				OFFSET 0.000000 0.000000 0.000000
				CHANNELS 3 Zrotation Yrotation Xrotation
				End Site
				{
					OFFSET 0.000000 0.000000 0.000000
				}
			}
		}
	}
	JOINT LeftUpLeg
	{
		OFFSET 11.315661 -0.000000 -0.000000
		CHANNELS 3 Zrotation Yrotation Xrotation
		JOINT LeftLeg
		{
			OFFSET 0.000000 -38.200325 0.000000
			CHANNELS 3 Zrotation Yrotation Xrotation
			JOINT LeftFoot
			{
				OFFSET 0.000000 -39.900856 0.000000
				CHANNELS 3 Zrotation Yrotation Xrotation
				JOINT LeftToeBase
				{
					OFFSET 0.000000 -0.000000 15.261641
					CHANNELS 3 Zrotation Yrotation Xrotation
					JOINT LeftToeBaseEnd
					{
						OFFSET -0.000000 0.000000 7.539996
						CHANNELS 3 Zrotation Yrotation Xrotation
						End Site
						{
							OFFSET 0.000000 0.000000 0.000000
						}
					}
				}
				JOINT LeftLegEnd
				{
					OFFSET 0.000000 0.000000 0.000000
					CHANNELS 3 Zrotation Yrotation Xrotation
					End Site
					{
						OFFSET 0.000000 0.000000 0.000000
					}
				}
			}
			JOINT LeftUpLegEnd
			{
				OFFSET 0.000000 0.000000 0.000000
				CHANNELS 3 Zrotation Yrotation Xrotation
				End Site
				{
					OFFSET 0.000000 0.000000 0.000000
				}
			}
		}
	}
}
MOTION
Frames: 4
Frame Time: 0.016667
0.717293 88.513641 3.606412 -0.807625 -0.145498 -10.211953 2.974575 -0.200603 8.045942 0.343280 -0.161376 3.810282 0.356144 -1.985393 3.162312 -0.570617 -0.651933 1.640799 0.102534 -1.376300 4.726995 -0.786954 -0.955029 -2.695320 -0.607556 -0.996725 -19.207796 0.000000 0.000000 0.000000 90.633385 -0.099941 10.407545 65.336464 -33.843838 4.224475 -0.450088 10.791811 20.358622 7.570276 13.503039 -6.307324 10.937046 -1.865515 39.738762 0.000000 0.000000 -26.639997 0.000000 0.000000 -18.499998 0.000000 0.000000 0.000000 13.612741 0.000000 -9.950699 9.528920 0.000000 0.000000 9.528920 0.000000 0.000000 0.000000 0.000000 0.000000 12.607718 -0.000000 -10.819226 8.825400 0.000000 0.000000 8.825400 0.000000 0.000000 0.000000 0.000000 0.000000 14.150433 -0.000000 -9.929859 9.905301 0.000000 0.000000 9.905301 0.000000 0.000000 0.000000 0.000000 0.000000 14.986264 0.000000 -10.561732 10.490384 0.000000 0.000000 10.490384 0.000000 0.000000 0.000000 0.000000 0.000000 0.000000 0.000000 0.000000 0.000000 0.000000 0.000000 -87.418159 -0.270548 6.233880 -75.998817 26.272921 -6.204399 -0.339548 -5.544445 38.662582 0.678041 -17.794977 -13.609647 -10.637670 1.840800 39.870987 0.000000 0.000000 -25.919998 0.000000 0.000000 -18.000004 0.000000 0.000000 0.000000 -12.784686 -0.000000 -9.414296 -8.949280 0.000000 0.000000 -8.949280 0.000000 0.000000 0.000000 0.000000 0.000000 -12.048728 -0.000000 -10.392732 -8.434110 0.000000 0.000000 -8.434110 0.000000 0.000000 0.000000 0.000000 0.000000 -13.654737 -0.000000 -11.575627 -9.558316 0.000000 0.000000 -9.558316 0.000000 0.000000 0.000000 0.000000 0.000000 -14.250447 -0.000000 -12.885098 -9.975311 0.000000 0.000000 -9.975311 0.000000 0.000000 0.000000 0.000000 0.000000 0.000000 0.000000 0.000000 0.000000 0.000000 0.000000 1.136141 -14.518364 12.126021 -0.031131 -0.345450 4.775295 -3.873879 -13.260001 19.727701 -0.519588 0.644877 -18.908152 0.000000 0.000000 0.000000 0.000000 0.000000 0.000000 0.000000 0.000000 0.000000 8.610489 -1.127510 2.905101 0.263057 0.928557 15.818079 -1.732145 6.252617 17.146845 1.232856 -0.489963 -24.107113 0.000000 0.000000 0.000000 0.000000 0.000000 0.000000 0.000000 0.000000 0.000000 
0.748545 88.446465 3.362126 -1.172937 -0.243629 -9.985973 3.440676 -0.676714 7.164647 1.298006 -0.490662 4.887581 -0.385703 -1.277574 2.843996 -1.336022 -0.426455 3.738330 -1.001421 -0.392185 4.203293 -0.849508 -0.823611 -3.699958 -0.745829 -0.860295 -18.417545 0.000000 0.000000 0.000000 90.290680 -0.237418 9.633761 64.301071 -32.255226 6.879041 -0.117509 12.615346 20.133394 7.021286 12.831848 -4.886414 10.794777 -1.870664 39.818386 0.000000 0.000029 -26.224857 0.000007 0.000041 -18.095028 0.000008 -0.000004 -0.000024 13.342571 0.105188 -10.052467 9.255960 -0.014069 -0.068574 9.304667 0.006126 -0.065714 -0.000032 0.000046 -0.000038 12.955689 0.054448 -10.876498 8.664338 -0.013192 -0.033046 8.756772 0.006880 -0.029926 0.000030 0.000021 0.000005 15.145361 -0.086888 -10.181880 9.810941 0.022517 0.106942 9.786382 -0.016358 0.078137 -0.000017 0.000527 0.000020 15.853548 -0.210406 -10.981683 10.430858 -0.006264 0.502897 10.261860 -0.076897 0.413436 0.000283 -0.000004 0.000009 0.000000 0.000000 0.000000 0.000000 0.000000 0.000000 -87.638878 -0.165217 6.496952 -73.651428 25.710569 -5.914127 -0.572785 -8.864007 40.585453 0.854142 -14.303452 -13.646736 -10.282743 1.802196 40.016644 -0.000007 0.000027 -25.162594 -0.000034 -0.000027 -17.509123 -0.000705 -0.000009 0.000330 -12.932767 0.174132 -9.564492 -8.805527 -0.020207 0.083340 -9.036427 0.014523 0.073455 0.000008 0.000103 -0.000011 -12.305552 0.071421 -10.398814 -8.539751 -0.020220 0.039397 -8.278561 0.006125 0.038495 -0.000322 -0.000029 -0.000071 -13.978117 -0.053411 -10.901189 -9.706000 0.033609 -0.117534 -9.537011 -0.005927 -0.074840 0.000139 0.000007 0.000003 -14.157090 -0.137168 -11.778241 -10.155988 0.041415 -0.294820 -10.123450 -0.041543 -0.272836 0.000004 -0.000014 -0.000029 0.000000 0.000000 0.000000 0.000000 0.000000 0.000000 1.512757 -14.548481 10.856633 -0.012387 -0.436230 6.535363 -4.931546 -13.117687 19.010515 -0.744282 0.557418 -18.976124 0.000000 0.000000 0.000000 0.000000 0.000000 0.000000 0.000000 0.000000 0.000000 8.405028 -0.834156 3.132534 0.311003 0.908411 16.607906 -3.270505 5.138108 20.430923 0.716658 -0.439645 -22.959986 0.000000 0.000000 0.000000 0.000000 0.000000 0.000000 0.000000 0.000000 0.000000 
0.682240 88.427277 3.323613 -1.129790 -0.043947 -10.076836 3.428037 -0.673144 7.120786 1.302509 -0.488403 4.961360 -0.469505 -1.252518 2.821449 -1.306380 -0.431481 3.841782 -0.953315 -0.473591 4.329659 -0.854802 -0.898734 -3.570522 -0.752600 -0.860872 -18.434898 0.000000 0.000000 0.000000 90.364044 -0.251132 9.692507 64.227959 -31.957733 6.882713 -0.143432 12.753307 20.481583 6.934134 12.873470 -5.208681 10.750236 -1.866083 39.843513 -0.000007 0.000053 -26.085880 0.000018 0.000034 -18.004980 0.000020 0.000005 -0.000043 13.148918 0.103586 -9.901450 9.127395 -0.015975 -0.065074 9.147537 0.004979 -0.060668 -0.000010 0.000060 -0.000028 12.741890 0.053425 -10.741837 8.543193 -0.014661 -0.029553 8.633983 0.005958 -0.027474 0.000024 0.000006 -0.000012 14.902014 -0.086859 -10.072464 9.673092 0.024040 0.095811 9.662602 -0.014567 0.069257 -0.000026 0.000623 0.000001 15.662580 -0.209515 -10.896150 10.339774 0.002195 0.469437 10.174624 -0.070454 0.389813 0.000281 0.000008 0.000016 0.000000 0.000000 0.000000 0.000000 0.000000 0.000000 -87.619766 -0.191091 6.481805 -73.699821 25.643656 -5.902548 -0.559589 -8.874928 40.925331 0.916241 -14.227563 -13.730695 -10.232156 1.789342 40.040401 0.000013 0.000028 -25.052114 -0.000035 -0.000011 -17.434889 -0.000732 0.000004 0.000222 -12.601831 0.176201 -9.512979 -8.707616 -0.020348 0.078900 -8.926083 0.014012 0.065272 0.000020 0.000091 -0.000003 -11.992768 0.072055 -10.388365 -8.485937 -0.020351 0.034762 -8.230394 0.006054 0.036663 -0.000353 -0.000021 -0.000086 -13.800296 -0.050354 -10.946744 -9.708516 0.033274 -0.115899 -9.551761 -0.005803 -0.072271 0.000261 0.000014 0.000010 -14.114795 -0.130679 -11.863912 -10.233171 0.039554 -0.293148 -10.215413 -0.043041 -0.270636 -0.000049 0.000009 -0.000051 0.000000 0.000000 0.000000 0.000000 0.000000 0.000000 1.460907 -14.762488 10.927003 -0.010847 -0.424412 6.447073 -5.035190 -13.095233 18.998928 -0.728764 0.540158 -18.975266 0.000000 0.000000 0.000000 0.000000 0.000000 0.000000 0.000000 0.000000 0.000000 8.472197 -0.909042 3.028273 0.314826 0.920668 16.644043 -3.304305 4.859055 20.491974 0.724545 -0.456222 -23.048956 0.000000 0.000000 0.000000 0.000000 0.000000 0.000000 0.000000 0.000000 0.000000 
0.635801 88.419151 3.288454 -1.049468 0.139535 -10.155673 3.399347 -0.659497 7.107279 1.322922 -0.488671 4.990838 -0.576249 -1.165053 2.833633 -1.302779 -0.421619 3.897060 -0.945554 -0.542601 4.377905 -0.858226 -0.990585 -3.493317 -0.732926 -0.864140 -18.490164 0.000000 0.000000 0.000000 90.380379 -0.234642 9.778584 64.418594 -31.417686 6.681201 -0.164101 13.058227 21.153568 6.563450 12.859418 -5.361699 10.705516 -1.860554 39.869259 -0.000006 0.000053 -25.959112 0.000017 0.000036 -17.916737 0.000020 0.000004 -0.000042 12.908109 0.102361 -9.762125 9.009106 -0.016695 -0.063782 8.999091 0.005287 -0.058503 -0.000011 0.000060 -0.000029 12.476843 0.052419 -10.636231 8.434782 -0.015369 -0.027423 8.527422 0.005420 -0.026481 0.000024 0.000009 -0.000010 14.615493 -0.086177 -10.032641 9.544662 0.024206 0.087873 9.546301 -0.013801 0.062870 -0.000023 0.000768 0.000002 15.392934 -0.206417 -10.907474 10.246149 0.005786 0.448659 10.090229 -0.069010 0.373118 0.000266 0.000008 0.000010 0.000000 0.000000 0.000000 0.000000 0.000000 0.000000 -87.546715 -0.201146 6.489281 -73.793800 25.465334 -5.917055 -0.535359 -8.983210 41.326176 1.074446 -14.215833 -13.663708 -10.189552 1.780349 40.059219 0.000012 0.000029 -24.974751 -0.000030 -0.000012 -17.378172 -0.000710 0.000004 0.000187 -12.267730 0.174816 -9.333043 -8.602719 -0.020194 0.077242 -8.811136 0.013794 0.059068 0.000017 0.000053 -0.000003 -11.684604 0.071258 -10.281967 -8.417495 -0.020673 0.031263 -8.174315 0.006089 0.035398 -0.000455 -0.000020 -0.000093 -13.620042 -0.047176 -10.946590 -9.694948 0.032868 -0.114091 -9.552907 -0.005971 -0.069444 0.000388 0.000014 0.000009 -14.082095 -0.127030 -11.952739 -10.295464 0.038342 -0.289810 -10.294593 -0.044669 -0.263478 -0.000097 0.000009 -0.000051 0.000000 0.000000 0.000000 0.000000 0.000000 0.000000 1.360092 -14.927695 11.030330 -0.008289 -0.412060 6.328305 -5.118858 -13.103025 19.007906 -0.726560 0.525452 -18.972616 0.000000 0.000000 0.000000 0.000000 0.000000 0.000000 0.000000 0.000000 0.000000 8.472314 -1.007638 2.979773 0.315660 0.926762 16.668173 -3.324625 4.638464 20.534695 0.723725 -0.468105 -23.113182 0.000000 0.000000 0.000000 0.000000 0.000000 0.000000 0.000000 0.000000 0.000000 
